<mxfile host="app.diagrams.net" modified="2024-02-05T11:33:41.891Z" agent="Mozilla/5.0 (Macintosh; Intel Mac OS X 10_15_7) AppleWebKit/605.1.15 (KHTML, like Gecko) Version/17.3 Safari/605.1.15" etag="ywwCvgP5l7tXIEG3-VgP" version="23.1.1" type="github">
  <diagram name="Page-1" id="rjDrSSfWqjY-BQv2FjJS">
    <mxGraphModel dx="1224" dy="667" grid="1" gridSize="10" guides="1" tooltips="1" connect="1" arrows="1" fold="1" page="1" pageScale="1" pageWidth="827" pageHeight="1169" math="0" shadow="0">
      <root>
        <mxCell id="0" />
        <mxCell id="1" parent="0" />
        <mxCell id="TZ_Lwikpa9NxjboD3mck-4" value="" style="edgeStyle=orthogonalEdgeStyle;rounded=0;orthogonalLoop=1;jettySize=auto;html=1;" edge="1" parent="1" source="AGraJKZwO1HRTsfSJN3S-1" target="AGraJKZwO1HRTsfSJN3S-2">
          <mxGeometry relative="1" as="geometry" />
        </mxCell>
        <mxCell id="AGraJKZwO1HRTsfSJN3S-1" value="load particles" style="rounded=0;whiteSpace=wrap;html=1;" parent="1" vertex="1">
          <mxGeometry x="110" y="130" width="110" height="50" as="geometry" />
        </mxCell>
        <mxCell id="AGraJKZwO1HRTsfSJN3S-16" value="" style="edgeStyle=orthogonalEdgeStyle;rounded=0;orthogonalLoop=1;jettySize=auto;html=1;" parent="1" source="AGraJKZwO1HRTsfSJN3S-2" target="AGraJKZwO1HRTsfSJN3S-15" edge="1">
          <mxGeometry relative="1" as="geometry" />
        </mxCell>
        <mxCell id="AGraJKZwO1HRTsfSJN3S-2" value="&lt;div&gt;ANN: build kd tree&lt;/div&gt;" style="rounded=0;whiteSpace=wrap;html=1;" parent="1" vertex="1">
          <mxGeometry x="110" y="220" width="110" height="50" as="geometry" />
        </mxCell>
        <mxCell id="AGraJKZwO1HRTsfSJN3S-4" value="load particles" style="rounded=0;whiteSpace=wrap;html=1;" parent="1" vertex="1">
          <mxGeometry x="280" y="130" width="110" height="50" as="geometry" />
        </mxCell>
        <mxCell id="AGraJKZwO1HRTsfSJN3S-5" value="&lt;div&gt;build kd tree&lt;/div&gt;" style="rounded=0;whiteSpace=wrap;html=1;" parent="1" vertex="1">
          <mxGeometry x="280" y="220" width="110" height="50" as="geometry" />
        </mxCell>
        <mxCell id="AGraJKZwO1HRTsfSJN3S-6" value="" style="endArrow=none;html=1;rounded=0;entryX=0.5;entryY=1;entryDx=0;entryDy=0;exitX=0.5;exitY=0;exitDx=0;exitDy=0;" parent="1" source="AGraJKZwO1HRTsfSJN3S-5" target="AGraJKZwO1HRTsfSJN3S-4" edge="1">
          <mxGeometry width="50" height="50" relative="1" as="geometry">
            <mxPoint x="590" y="250" as="sourcePoint" />
            <mxPoint x="640" y="200" as="targetPoint" />
          </mxGeometry>
        </mxCell>
        <mxCell id="AGraJKZwO1HRTsfSJN3S-7" value="load particles" style="rounded=0;whiteSpace=wrap;html=1;" parent="1" vertex="1">
          <mxGeometry x="450" y="130" width="110" height="50" as="geometry" />
        </mxCell>
        <mxCell id="AGraJKZwO1HRTsfSJN3S-8" value="&lt;div&gt;build kd tree&lt;/div&gt;" style="rounded=0;whiteSpace=wrap;html=1;" parent="1" vertex="1">
          <mxGeometry x="450" y="220" width="110" height="50" as="geometry" />
        </mxCell>
        <mxCell id="AGraJKZwO1HRTsfSJN3S-9" value="" style="endArrow=none;html=1;rounded=0;entryX=0.5;entryY=1;entryDx=0;entryDy=0;exitX=0.5;exitY=0;exitDx=0;exitDy=0;" parent="1" source="AGraJKZwO1HRTsfSJN3S-8" target="AGraJKZwO1HRTsfSJN3S-7" edge="1">
          <mxGeometry width="50" height="50" relative="1" as="geometry">
            <mxPoint x="760" y="250" as="sourcePoint" />
            <mxPoint x="810" y="200" as="targetPoint" />
          </mxGeometry>
        </mxCell>
        <mxCell id="AGraJKZwO1HRTsfSJN3S-10" value="load particles" style="rounded=0;whiteSpace=wrap;html=1;" parent="1" vertex="1">
          <mxGeometry x="690" y="130" width="110" height="50" as="geometry" />
        </mxCell>
        <mxCell id="AGraJKZwO1HRTsfSJN3S-11" value="&lt;div&gt;build kd tree&lt;/div&gt;" style="rounded=0;whiteSpace=wrap;html=1;" parent="1" vertex="1">
          <mxGeometry x="690" y="220" width="110" height="50" as="geometry" />
        </mxCell>
        <mxCell id="AGraJKZwO1HRTsfSJN3S-12" value="" style="endArrow=none;html=1;rounded=0;entryX=0.5;entryY=1;entryDx=0;entryDy=0;exitX=0.5;exitY=0;exitDx=0;exitDy=0;" parent="1" source="AGraJKZwO1HRTsfSJN3S-11" target="AGraJKZwO1HRTsfSJN3S-10" edge="1">
          <mxGeometry width="50" height="50" relative="1" as="geometry">
            <mxPoint x="1000" y="250" as="sourcePoint" />
            <mxPoint x="1050" y="200" as="targetPoint" />
          </mxGeometry>
        </mxCell>
        <mxCell id="AGraJKZwO1HRTsfSJN3S-13" value="&lt;div style=&quot;font-size: 22px;&quot;&gt;...&lt;/div&gt;" style="text;html=1;align=center;verticalAlign=middle;resizable=0;points=[];autosize=1;strokeColor=none;fillColor=none;" parent="1" vertex="1">
          <mxGeometry x="610" y="135" width="40" height="40" as="geometry" />
        </mxCell>
        <mxCell id="AGraJKZwO1HRTsfSJN3S-14" value="&lt;div style=&quot;font-size: 22px;&quot;&gt;...&lt;/div&gt;" style="text;html=1;align=center;verticalAlign=middle;resizable=0;points=[];autosize=1;strokeColor=none;fillColor=none;" parent="1" vertex="1">
          <mxGeometry x="610" y="220" width="40" height="40" as="geometry" />
        </mxCell>
        <mxCell id="TZ_Lwikpa9NxjboD3mck-2" value="" style="edgeStyle=orthogonalEdgeStyle;rounded=0;orthogonalLoop=1;jettySize=auto;html=1;" edge="1" parent="1" source="AGraJKZwO1HRTsfSJN3S-15" target="TZ_Lwikpa9NxjboD3mck-1">
          <mxGeometry relative="1" as="geometry" />
        </mxCell>
        <mxCell id="AGraJKZwO1HRTsfSJN3S-15" value="i = 0, j = 0, k = 0" style="rounded=0;whiteSpace=wrap;html=1;" parent="1" vertex="1">
          <mxGeometry x="110" y="310" width="110" height="50" as="geometry" />
        </mxCell>
        <mxCell id="TZ_Lwikpa9NxjboD3mck-6" value="" style="edgeStyle=orthogonalEdgeStyle;rounded=0;orthogonalLoop=1;jettySize=auto;html=1;" edge="1" parent="1" source="TZ_Lwikpa9NxjboD3mck-1" target="TZ_Lwikpa9NxjboD3mck-5">
          <mxGeometry relative="1" as="geometry" />
        </mxCell>
        <mxCell id="TZ_Lwikpa9NxjboD3mck-1" value="&lt;div style=&quot;text-align: left;&quot;&gt;ANN query&lt;/div&gt;&lt;div style=&quot;text-align: left;&quot;&gt;a[0,0,0] = query(&lt;/div&gt;&lt;div style=&quot;text-align: left;&quot;&gt;&amp;nbsp;x = 0*1024 + i,&lt;/div&gt;&lt;div style=&quot;text-align: left;&quot;&gt;&amp;nbsp;y = 0*1024 + j,&lt;/div&gt;&lt;div style=&quot;text-align: left;&quot;&gt;&amp;nbsp;z = 0*1024 + k&lt;/div&gt;&lt;div style=&quot;text-align: left;&quot;&gt;)&lt;/div&gt;" style="whiteSpace=wrap;html=1;rounded=0;" vertex="1" parent="1">
          <mxGeometry x="102.5" y="400" width="125" height="95" as="geometry" />
        </mxCell>
        <mxCell id="TZ_Lwikpa9NxjboD3mck-8" value="" style="edgeStyle=orthogonalEdgeStyle;rounded=0;orthogonalLoop=1;jettySize=auto;html=1;" edge="1" parent="1" source="TZ_Lwikpa9NxjboD3mck-5" target="TZ_Lwikpa9NxjboD3mck-7">
          <mxGeometry relative="1" as="geometry" />
        </mxCell>
        <mxCell id="TZ_Lwikpa9NxjboD3mck-5" value="write a[0,0,0]" style="shape=parallelogram;perimeter=parallelogramPerimeter;whiteSpace=wrap;html=1;fixedSize=1;rounded=0;" vertex="1" parent="1">
          <mxGeometry x="105" y="530" width="120" height="60" as="geometry" />
        </mxCell>
        <mxCell id="TZ_Lwikpa9NxjboD3mck-10" value="" style="edgeStyle=orthogonalEdgeStyle;rounded=0;orthogonalLoop=1;jettySize=auto;html=1;" edge="1" parent="1" source="TZ_Lwikpa9NxjboD3mck-7" target="TZ_Lwikpa9NxjboD3mck-9">
          <mxGeometry relative="1" as="geometry" />
        </mxCell>
        <mxCell id="TZ_Lwikpa9NxjboD3mck-7" value="read a[r,s,t]" style="shape=parallelogram;perimeter=parallelogramPerimeter;whiteSpace=wrap;html=1;fixedSize=1;rounded=0;" vertex="1" parent="1">
          <mxGeometry x="105" y="680" width="120" height="60" as="geometry" />
        </mxCell>
        <mxCell id="TZ_Lwikpa9NxjboD3mck-9" value="f_ijk = np.sum(a[r,s,t])" style="whiteSpace=wrap;html=1;rounded=0;" vertex="1" parent="1">
          <mxGeometry x="92.5" y="820" width="145" height="50" as="geometry" />
        </mxCell>
      </root>
    </mxGraphModel>
  </diagram>
</mxfile>
